<svg width="64" height="64" viewBox="0 0 64 64" fill="none" xmlns="http://www.w3.org/2000/svg">
<path d="M1.77783 37.882C1.77783 30.085 8.0985 23.7643 15.8955 23.7643C23.6925 23.7643 30.0131 30.085 30.0131 37.882V45.7251C30.0131 49.1904 27.2039 51.9996 23.7386 51.9996H15.8955C8.0985 51.9996 1.77783 45.6789 1.77783 37.882Z" fill="url(#paint0_linear_3140_1711)"/>
<path d="M33.5409 19.0588C33.5409 15.1603 36.7012 12 40.5997 12C44.4981 12 47.6587 15.1603 47.6587 19.0588V20.0092C47.6587 21.8763 48.8507 23.535 50.6205 24.1302L52.6258 24.8047C58.0934 26.6436 61.7761 31.768 61.7761 37.5364V37.9676C61.7761 45.7175 55.4938 52 47.7436 52H39.8153C36.3501 52 33.5409 49.1908 33.5409 45.7255V19.0588Z" fill="url(#paint1_linear_3140_1711)"/>
<path d="M59.6032 17.0909C59.1232 17.0909 58.6872 16.9813 58.2943 16.762C57.9103 16.534 57.6049 16.2271 57.3783 15.8412C57.16 15.4553 57.0512 15.0212 57.0512 14.5389C57.0512 14.0565 57.1645 13.6268 57.3912 13.2497C57.6183 12.8638 57.9236 12.5613 58.3076 12.342C58.6912 12.114 59.1232 12 59.6032 12C60.0827 12 60.5147 12.114 60.8987 12.342C61.2827 12.5613 61.5836 12.8638 61.8018 13.2497C62.0285 13.6268 62.1418 14.0565 62.1418 14.5389C62.1418 15.0212 62.0285 15.4553 61.8018 15.8412C61.5836 16.2271 61.2827 16.534 60.8987 16.762C60.5236 16.9813 60.0916 17.0909 59.6032 17.0909ZM59.6032 16.7226C60.0129 16.7226 60.3796 16.6305 60.7023 16.4463C61.0338 16.2534 61.2912 15.9903 61.4747 15.657C61.6663 15.3238 61.7623 14.9511 61.7623 14.5389C61.7623 14.1267 61.6663 13.7584 61.4747 13.4339C61.2912 13.1006 61.0338 12.8419 60.7023 12.6577C60.3796 12.4648 60.0129 12.3683 59.6032 12.3683C59.1929 12.3683 58.8223 12.4648 58.4907 12.6577C58.1676 12.8419 57.9103 13.1006 57.7183 13.4339C57.5352 13.7584 57.4436 14.1267 57.4436 14.5389C57.4436 14.9511 57.5352 15.3238 57.7183 15.657C57.9103 15.9903 58.1676 16.2534 58.4907 16.4463C58.8223 16.6305 59.1929 16.7226 59.6032 16.7226ZM59.0663 15.9333H58.6609V13.0918H59.6814C59.9867 13.0918 60.2312 13.1708 60.4143 13.3286C60.5978 13.4777 60.6894 13.6882 60.6894 13.9601C60.6894 14.1442 60.6414 14.3065 60.5454 14.4468C60.4494 14.5871 60.3009 14.6924 60.1005 14.7625L60.7418 15.9333H60.2836L59.7076 14.8546H59.0663V15.9333ZM60.2574 13.9732C60.2574 13.64 60.0609 13.4733 59.6685 13.4733H59.0663V14.4731H59.6685C59.8516 14.4731 59.9956 14.4336 60.1005 14.3547C60.2049 14.267 60.2574 14.1398 60.2574 13.9732Z" fill="url(#paint2_linear_3140_1711)"/>
<defs>
<linearGradient id="paint0_linear_3140_1711" x1="32.0001" y1="12" x2="32.0001" y2="52" gradientUnits="userSpaceOnUse">
<stop stop-color="#D743C8"/>
<stop offset="1" stop-color="#7435DB"/>
</linearGradient>
<linearGradient id="paint1_linear_3140_1711" x1="32.0001" y1="12" x2="32.0001" y2="52" gradientUnits="userSpaceOnUse">
<stop stop-color="#D743C8"/>
<stop offset="1" stop-color="#7435DB"/>
</linearGradient>
<linearGradient id="paint2_linear_3140_1711" x1="32.0001" y1="12" x2="32.0001" y2="52" gradientUnits="userSpaceOnUse">
<stop stop-color="#D743C8"/>
<stop offset="1" stop-color="#7435DB"/>
</linearGradient>
</defs>
</svg>
